<svg width="54" height="12" viewBox="0 0 54 12" fill="none" xmlns="http://www.w3.org/2000/svg">
<path d="M5.46667 10.9242L3.72105 8.31376C3.69279 8.2715 3.65232 8.23886 3.60503 8.22019L0.158506 6.85981C-0.0981302 6.75852 -0.0256128 6.37727 0.250292 6.37727H2.90812C3.15031 6.37727 3.251 6.06735 3.05505 5.92501L1.14426 4.53697C0.909417 4.36638 1.10507 3.99988 1.37749 4.10008L2.95809 4.68143C3.18513 4.76494 3.38659 4.50943 3.25241 4.30813L2.2869 2.85965C2.12251 2.61303 2.44787 2.33611 2.66505 2.53781L3.93516 3.71738C4.11343 3.88294 4.39915 3.72217 4.35016 3.48386L3.94829 1.52877C3.8925 1.25739 4.25395 1.11024 4.40357 1.34341L5.74509 3.43402C5.8552 3.6056 6.11333 3.58034 6.18809 3.39068L7.14642 0.959396C7.24762 0.70265 7.629 0.775103 7.629 1.05107V3.55391C7.629 3.70709 7.7655 3.82425 7.9169 3.80103L10.8828 3.34615C11.144 3.3061 11.2806 3.64571 11.0646 3.79772L8.42308 5.65623C8.25646 5.77346 8.2925 6.03007 8.48496 6.09687L10.3571 6.74668C10.6284 6.84084 10.5528 7.24334 10.2658 7.23268L7.71086 7.13778C7.4745 7.129 7.35924 7.42294 7.53858 7.57716L9.10799 8.92674C9.32055 9.10953 9.1174 9.45001 8.85559 9.34977L6.0663 8.28173C5.89379 8.21567 5.71169 8.35307 5.72786 8.53709L5.92353 10.7633C5.94618 11.021 5.61047 11.1392 5.46667 10.9242Z" fill="black"/>
<path d="M21.2371 11.1269C20.4251 11.1269 19.9071 10.5949 19.6831 9.53094L19.3611 7.97694C19.2585 7.47294 19.1418 7.09027 19.0111 6.82894C18.8898 6.5676 18.7171 6.39027 18.4931 6.29694C18.2785 6.2036 17.9798 6.15694 17.5971 6.15694C17.4665 6.15694 17.3638 6.19427 17.2891 6.26894C17.2145 6.33427 17.1771 6.41827 17.1771 6.52094V10.0209C17.1771 10.2169 17.2145 10.3523 17.2891 10.4269C17.3638 10.4923 17.5318 10.5483 17.7931 10.5949L18.3111 10.6789C18.4138 10.6976 18.4651 10.7489 18.4651 10.8329C18.4651 10.9449 18.3951 11.0009 18.2551 11.0009H15.4131C15.2731 11.0009 15.2031 10.9496 15.2031 10.8469C15.2031 10.7629 15.2638 10.7069 15.3851 10.6789L15.7071 10.6229C15.9031 10.5856 16.0291 10.5343 16.0851 10.4689C16.1505 10.4036 16.1831 10.2729 16.1831 10.0769V1.84494C16.1831 1.64894 16.1505 1.51827 16.0851 1.45294C16.0291 1.3876 15.9031 1.33627 15.7071 1.29894L15.3851 1.24294C15.2638 1.21494 15.2031 1.15894 15.2031 1.07494C15.2031 0.972271 15.2731 0.920937 15.4131 0.920937H18.2551C18.8058 0.920937 19.2958 1.02827 19.7251 1.24294C20.1545 1.4576 20.4905 1.75627 20.7331 2.13894C20.9758 2.51227 21.0971 2.94627 21.0971 3.44094C21.0971 4.02894 20.9198 4.56094 20.5651 5.03694C20.2105 5.5036 19.7625 5.83494 19.2211 6.03094C19.1558 6.0496 19.1185 6.08227 19.1091 6.12894C19.1091 6.16627 19.1418 6.19894 19.2071 6.22694C19.5058 6.36694 19.7391 6.56294 19.9071 6.81494C20.0845 7.06694 20.2198 7.40294 20.3131 7.82294L20.6211 9.25094C20.7238 9.73627 20.8451 10.0816 20.9851 10.2869C21.1251 10.4923 21.3025 10.5949 21.5171 10.5949C21.5918 10.5949 21.6571 10.5856 21.7131 10.5669C21.7785 10.5389 21.8578 10.4923 21.9511 10.4269C22.0258 10.3803 22.0958 10.3709 22.1611 10.3989C22.2265 10.4176 22.2591 10.4643 22.2591 10.5389C22.2591 10.6976 22.1565 10.8376 21.9511 10.9589C21.7458 11.0709 21.5078 11.1269 21.2371 11.1269ZM18.1151 5.80694C18.7498 5.80694 19.2305 5.59694 19.5571 5.17694C19.8838 4.7476 20.0471 4.17827 20.0471 3.46894C20.0471 2.77827 19.8558 2.2416 19.4731 1.85894C19.0998 1.46694 18.5818 1.27094 17.9191 1.27094C17.4245 1.27094 17.1771 1.4576 17.1771 1.83094V5.03694C17.1771 5.55027 17.4898 5.80694 18.1151 5.80694Z" fill="black"/>
<path d="M21.2329 11.0009C21.0929 11.0009 21.0229 10.9543 21.0229 10.8609C21.0229 10.7676 21.0882 10.7069 21.2189 10.6789L21.4289 10.6369C21.6155 10.5996 21.7555 10.5109 21.8489 10.3709C21.9422 10.2216 22.0215 10.0163 22.0869 9.75494L24.2569 1.00494C24.2755 0.911604 24.3035 0.850937 24.3409 0.822937C24.3875 0.794937 24.4295 0.780937 24.4669 0.780937C24.5135 0.780937 24.5555 0.794937 24.5929 0.822937C24.6395 0.850937 24.6722 0.911604 24.6909 1.00494L26.9029 9.88094C26.9682 10.1423 27.0429 10.3243 27.1269 10.4269C27.2109 10.5296 27.3415 10.5996 27.5189 10.6369L27.7289 10.6789C27.8595 10.7069 27.9249 10.7676 27.9249 10.8609C27.9249 10.9543 27.8549 11.0009 27.7149 11.0009H25.3209C25.1902 11.0009 25.1249 10.9496 25.1249 10.8469C25.1249 10.7443 25.2042 10.6883 25.3629 10.6789L25.6289 10.6509C25.7875 10.6323 25.8855 10.5809 25.9229 10.4969C25.9695 10.4129 25.9695 10.2683 25.9229 10.0629L25.3909 7.89294C25.3349 7.65027 25.1809 7.52894 24.9289 7.52894H23.4589C23.2162 7.52894 23.0622 7.65027 22.9969 7.89294L22.5209 9.76894C22.3809 10.3009 22.5209 10.5949 22.9409 10.6509L23.1509 10.6789C23.3095 10.7069 23.3889 10.7629 23.3889 10.8469C23.3889 10.9496 23.3235 11.0009 23.1929 11.0009H21.2329ZM23.4169 7.10894H24.9569C25.1062 7.10894 25.1669 7.0296 25.1389 6.87094L24.2429 3.11894H24.1729L23.2349 6.87094C23.2069 7.0296 23.2675 7.10894 23.4169 7.10894Z" fill="black"/>
<path d="M27.4493 11.0009C27.3093 11.0009 27.2393 10.9496 27.2393 10.8469C27.2393 10.7629 27.3 10.7069 27.4213 10.6789L27.7433 10.6229C28.0606 10.5669 28.2193 10.3849 28.2193 10.0769V1.84494C28.2193 1.64894 28.1866 1.51827 28.1213 1.45294C28.0653 1.3876 27.9393 1.33627 27.7433 1.29894L27.4213 1.24294C27.3 1.21494 27.2393 1.15894 27.2393 1.07494C27.2393 0.972271 27.3093 0.920937 27.4493 0.920937H30.2773C31.0053 0.920937 31.6353 1.1356 32.1673 1.56494C32.6993 1.98494 33.11 2.5776 33.3993 3.34294C33.6886 4.10827 33.8333 4.99494 33.8333 6.00294C33.8333 7.02027 33.6793 7.90227 33.3713 8.64894C33.0726 9.3956 32.648 9.97427 32.0973 10.3849C31.5466 10.7956 30.8933 11.0009 30.1373 11.0009H27.4493ZM30.1933 10.6369C31.024 10.6369 31.654 10.2403 32.0833 9.44694C32.522 8.6536 32.7413 7.5056 32.7413 6.00294C32.7413 4.5096 32.5313 3.35227 32.1113 2.53094C31.7006 1.70027 31.0893 1.28494 30.2773 1.28494C29.568 1.28494 29.2133 1.6256 29.2133 2.30694V9.61494C29.2133 9.98827 29.288 10.2543 29.4373 10.4129C29.596 10.5623 29.848 10.6369 30.1933 10.6369Z" fill="black"/>
<path d="M33.8931 11.0009C33.7531 11.0009 33.6831 10.9496 33.6831 10.8469C33.6831 10.7629 33.7438 10.7069 33.8651 10.6789L34.1871 10.6229C34.3831 10.5856 34.5091 10.5343 34.5651 10.4689C34.6305 10.4036 34.6631 10.2729 34.6631 10.0769V1.84494C34.6631 1.64894 34.6305 1.51827 34.5651 1.45294C34.5091 1.3876 34.3831 1.33627 34.1871 1.29894L33.8651 1.24294C33.7438 1.21494 33.6831 1.15894 33.6831 1.07494C33.6831 0.972271 33.7531 0.920937 33.8931 0.920937H36.4271C36.5671 0.920937 36.6371 0.972271 36.6371 1.07494C36.6371 1.15894 36.5765 1.21494 36.4551 1.24294L36.1331 1.29894C35.9371 1.33627 35.8065 1.3876 35.7411 1.45294C35.6851 1.51827 35.6571 1.64894 35.6571 1.84494V10.0769C35.6571 10.2729 35.6851 10.4036 35.7411 10.4689C35.8065 10.5343 35.9371 10.5856 36.1331 10.6229L36.4551 10.6789C36.5765 10.7069 36.6371 10.7629 36.6371 10.8469C36.6371 10.9496 36.5671 11.0009 36.4271 11.0009H33.8931Z" fill="black"/>
<path d="M36.5815 11.0009C36.4415 11.0009 36.3715 10.9543 36.3715 10.8609C36.3715 10.7676 36.4368 10.7069 36.5675 10.6789L36.7775 10.6369C36.9641 10.5996 37.1041 10.5109 37.1975 10.3709C37.2908 10.2216 37.3701 10.0163 37.4355 9.75494L39.6055 1.00494C39.6241 0.911604 39.6521 0.850937 39.6895 0.822937C39.7361 0.794937 39.7781 0.780937 39.8155 0.780937C39.8621 0.780937 39.9041 0.794937 39.9415 0.822937C39.9881 0.850937 40.0208 0.911604 40.0395 1.00494L42.2515 9.88094C42.3168 10.1423 42.3915 10.3243 42.4755 10.4269C42.5595 10.5296 42.6901 10.5996 42.8675 10.6369L43.0775 10.6789C43.2081 10.7069 43.2735 10.7676 43.2735 10.8609C43.2735 10.9543 43.2035 11.0009 43.0635 11.0009H40.6695C40.5388 11.0009 40.4735 10.9496 40.4735 10.8469C40.4735 10.7443 40.5528 10.6883 40.7115 10.6789L40.9775 10.6509C41.1361 10.6323 41.2341 10.5809 41.2715 10.4969C41.3181 10.4129 41.3181 10.2683 41.2715 10.0629L40.7395 7.89294C40.6835 7.65027 40.5295 7.52894 40.2775 7.52894H38.8075C38.5648 7.52894 38.4108 7.65027 38.3455 7.89294L37.8695 9.76894C37.7295 10.3009 37.8695 10.5949 38.2895 10.6509L38.4995 10.6789C38.6581 10.7069 38.7375 10.7629 38.7375 10.8469C38.7375 10.9496 38.6721 11.0009 38.5415 11.0009H36.5815ZM38.7655 7.10894H40.3055C40.4548 7.10894 40.5155 7.0296 40.4875 6.87094L39.5915 3.11894H39.5215L38.5835 6.87094C38.5555 7.0296 38.6161 7.10894 38.7655 7.10894Z" fill="black"/>
<path d="M43.6939 11.0009C43.5539 11.0009 43.4839 10.9496 43.4839 10.8469C43.4839 10.7443 43.5446 10.6883 43.6659 10.6789L44.2959 10.5809C44.4826 10.5529 44.6086 10.5063 44.6739 10.4409C44.7392 10.3663 44.7719 10.2309 44.7719 10.0349V1.63494C44.7719 1.50427 44.7439 1.41094 44.6879 1.35494C44.6319 1.29894 44.5152 1.27094 44.3379 1.27094C43.9926 1.27094 43.6519 1.42027 43.3159 1.71894C42.9799 2.0176 42.7606 2.49827 42.6579 3.16094L42.5879 3.62294C42.5692 3.74427 42.5039 3.80494 42.3919 3.80494C42.2519 3.80494 42.1912 3.7256 42.2099 3.56694L42.3359 1.03294C42.3546 0.818271 42.4386 0.710938 42.5879 0.710938C42.6532 0.710938 42.7139 0.729604 42.7699 0.766937C42.8259 0.794937 42.9192 0.827604 43.0499 0.864937C43.1899 0.90227 43.4092 0.920937 43.7079 0.920937H46.8299C47.1286 0.920937 47.3432 0.90227 47.4739 0.864937C47.6139 0.827604 47.7119 0.794937 47.7679 0.766937C47.8332 0.729604 47.8939 0.710938 47.9499 0.710938C48.0992 0.710938 48.1832 0.818271 48.2019 1.03294L48.3279 3.56694C48.3466 3.7256 48.2859 3.80494 48.1459 3.80494C48.0339 3.80494 47.9686 3.74427 47.9499 3.62294L47.8799 3.16094C47.7866 2.49827 47.5719 2.0176 47.2359 1.71894C46.8999 1.42027 46.5546 1.27094 46.1999 1.27094C46.0226 1.27094 45.9059 1.29894 45.8499 1.35494C45.7939 1.41094 45.7659 1.50427 45.7659 1.63494V10.0349C45.7659 10.2309 45.7986 10.3663 45.8639 10.4409C45.9386 10.5063 46.0646 10.5529 46.2419 10.5809L46.8719 10.6789C46.9932 10.6883 47.0539 10.7443 47.0539 10.8469C47.0539 10.9496 46.9839 11.0009 46.8439 11.0009H43.6939Z" fill="black"/>
<path d="M48.551 11.0009C48.411 11.0009 48.341 10.9496 48.341 10.8469C48.341 10.7629 48.4017 10.7069 48.523 10.6789L48.845 10.6229C49.041 10.5856 49.167 10.5343 49.223 10.4689C49.2883 10.4036 49.321 10.2729 49.321 10.0769V1.84494C49.321 1.64894 49.2883 1.51827 49.223 1.45294C49.167 1.3876 49.041 1.33627 48.845 1.29894L48.523 1.24294C48.4017 1.21494 48.341 1.15894 48.341 1.07494C48.341 0.972271 48.411 0.920937 48.551 0.920937H53.255C53.4697 0.920937 53.5863 1.02827 53.605 1.24294L53.717 3.56694C53.7357 3.7256 53.675 3.80494 53.535 3.80494C53.423 3.80494 53.3577 3.74427 53.339 3.62294L53.255 3.10494C53.1523 2.47027 52.9423 2.00827 52.625 1.71894C52.3077 1.42027 51.869 1.27094 51.309 1.27094C50.9357 1.27094 50.6744 1.32694 50.525 1.43894C50.385 1.5416 50.315 1.72827 50.315 1.99894V5.37294C50.315 5.5036 50.3804 5.56894 50.511 5.56894H51.211C51.6217 5.56894 51.8737 5.3496 51.967 4.91094L52.107 4.21094C52.1444 4.07094 52.2237 4.01027 52.345 4.02894C52.4477 4.0476 52.499 4.12694 52.499 4.26694V7.41694C52.499 7.55694 52.4477 7.63627 52.345 7.65494C52.2237 7.6736 52.1444 7.61294 52.107 7.47294L51.967 6.78694C51.9017 6.46027 51.8083 6.2456 51.687 6.14294C51.575 6.04027 51.4117 5.98894 51.197 5.98894H50.511C50.3804 5.98894 50.315 6.05427 50.315 6.18494V9.69894C50.315 10.0349 50.399 10.2776 50.567 10.4269C50.7444 10.5763 51.0617 10.6509 51.519 10.6509C51.9857 10.6509 52.3823 10.5343 52.709 10.3009C53.045 10.0583 53.2783 9.61027 53.409 8.95694L53.577 8.13094C53.605 8.0096 53.675 7.94894 53.787 7.94894C53.9177 7.94894 53.9737 8.02827 53.955 8.18694L53.815 10.6789C53.7964 10.8936 53.6797 11.0009 53.465 11.0009H48.551Z" fill="black"/>
</svg>
